<svg xmlns="http://www.w3.org/2000/svg" width="256" height="256" viewBox="0 0 256 256" fill="none">
  <rect width="256" height="256" rx="48" fill="#111217"/>
  <g filter="url(#a)">
    <path d="M92 68c0-6.627 5.373-12 12-12h28c33.137 0 60 26.863 60 60v4c0 6.627-5.373 12-12 12h-16c-6.627 0-12-5.373-12-12v-4c0-15.464-12.536-28-28-28h-8v92c0 6.627-5.373 12-12 12H92c-6.627 0-12-5.373-12-12V68z" fill="url(#b)"/>
    <path d="M76 104c0-6.627 5.373-12 12-12h28c33.137 0 60 26.863 60 60v4c0 6.627-5.373 12-12 12h-16c-6.627 0-12-5.373-12-12v-4c0-15.464-12.536-28-28-28h-8v44c0 6.627-5.373 12-12 12H88c-6.627 0-12-5.373-12-12v-64z" fill="url(#c)" opacity=".7"/>
  </g>
  <defs>
    <linearGradient id="b" x1="92" y1="56" x2="192" y2="196" gradientUnits="userSpaceOnUse">
      <stop stop-color="#6C5CE7"/>
      <stop offset="1" stop-color="#00D1B2"/>
    </linearGradient>
    <linearGradient id="c" x1="76" y1="92" x2="176" y2="212" gradientUnits="userSpaceOnUse">
      <stop stop-color="#00D1B2"/>
      <stop offset="1" stop-color="#6C5CE7"/>
    </linearGradient>
    <filter id="a" x="56" y="36" width="160" height="184" color-interpolation-filters="sRGB" filterUnits="userSpaceOnUse">
      <feFlood flood-opacity="0" result="BackgroundImageFix"/>
      <feColorMatrix in="SourceAlpha" result="hardAlpha" type="matrix" values="0 0 0 0 0 0 0 0 0 0 0 0 0 0 0 0 0 0 127 0"/>
      <feOffset dy="2"/>
      <feGaussianBlur stdDeviation="6"/>
      <feComposite in2="hardAlpha" operator="out"/>
      <feColorMatrix type="matrix" values="0 0 0 0 0 0 0 0 0 0 0 0 0 0 0 0 0 0 0.3 0"/>
      <feBlend in2="BackgroundImageFix" result="effect1_dropShadow"/>
      <feBlend in="SourceGraphic" in2="effect1_dropShadow" result="shape"/>
    </filter>
  </defs>
</svg>
